<?xml version="1.0" encoding="UTF-8"?>
<svg id="Layer_2" data-name="Layer 2" xmlns="http://www.w3.org/2000/svg" xmlns:xlink="http://www.w3.org/1999/xlink" viewBox="0 0 96 80">
  <defs>
    <style>
      .cls-1 {
        fill: url(#linear-gradient-2);
      }

      .cls-2 {
        fill: url(#linear-gradient-15);
      }

      .cls-3 {
        fill: url(#linear-gradient-14);
      }

      .cls-4 {
        fill: url(#linear-gradient-6);
      }

      .cls-5 {
        fill: #e0e0e0;
      }

      .cls-6 {
        fill: url(#linear-gradient-11);
      }

      .cls-7 {
        fill: url(#linear-gradient-10);
      }

      .cls-8 {
        fill: url(#linear-gradient-16);
      }

      .cls-9 {
        fill: url(#linear-gradient-5);
      }

      .cls-10 {
        fill: url(#linear-gradient-7);
      }

      .cls-11 {
        fill: url(#linear-gradient-9);
      }

      .cls-12 {
        fill: url(#linear-gradient-3);
      }

      .cls-13 {
        fill: url(#linear-gradient);
      }

      .cls-14 {
        fill: url(#linear-gradient-4);
      }

      .cls-15 {
        fill: url(#linear-gradient-8);
      }

      .cls-16 {
        fill: url(#linear-gradient-12);
      }

      .cls-17 {
        fill: url(#linear-gradient-13);
      }
    </style>
    <linearGradient id="linear-gradient" x1="13.48" y1="42.25" x2="23.3" y2="32.43" gradientUnits="userSpaceOnUse">
      <stop offset="0" stop-color="#616161"/>
      <stop offset="0" stop-color="#616161"/>
      <stop offset=".02" stop-color="#7b7b7b"/>
      <stop offset=".05" stop-color="#8e8e8e"/>
      <stop offset=".07" stop-color="#9a9a9a"/>
      <stop offset=".1" stop-color="#9e9e9e"/>
      <stop offset=".1" stop-color="#a0a0a0"/>
      <stop offset=".14" stop-color="#bdbdbd"/>
      <stop offset=".18" stop-color="#d5d5d5"/>
      <stop offset=".23" stop-color="#e8e8e8"/>
      <stop offset=".29" stop-color="#f5f5f5"/>
      <stop offset=".36" stop-color="#fcfcfc"/>
      <stop offset=".51" stop-color="#fff"/>
      <stop offset=".59" stop-color="#fafafa"/>
      <stop offset=".68" stop-color="#ececec"/>
      <stop offset=".78" stop-color="#d4d4d4"/>
      <stop offset=".87" stop-color="#b8b8b8"/>
      <stop offset="1" stop-color="#696969"/>
    </linearGradient>
    <linearGradient id="linear-gradient-2" x1="18.22" y1="54.01" x2="32.83" y2="39.4" xlink:href="#linear-gradient"/>
    <linearGradient id="linear-gradient-3" x1="24.48" y1="32.97" x2="29.95" y2="27.49" xlink:href="#linear-gradient"/>
    <linearGradient id="linear-gradient-4" x1="21.72" y1="24.06" x2="23.27" y2="22.51" xlink:href="#linear-gradient"/>
    <linearGradient id="linear-gradient-5" x1="20.33" y1="28.01" x2="24.71" y2="23.63" xlink:href="#linear-gradient"/>
    <linearGradient id="linear-gradient-6" x1="11.43" y1="49.15" x2="33.88" y2="26.7" xlink:href="#linear-gradient"/>
    <linearGradient id="linear-gradient-7" x1="4.97" y1="40.73" x2="10.59" y2="35.11" xlink:href="#linear-gradient"/>
    <linearGradient id="linear-gradient-8" x1="5" y1="42.31" x2="13.77" y2="33.54" xlink:href="#linear-gradient"/>
    <linearGradient id="linear-gradient-9" x1="5.77" y1="43.52" x2="16.97" y2="32.32" xlink:href="#linear-gradient"/>
    <linearGradient id="linear-gradient-10" x1="28.33" y1="43.52" x2="39.53" y2="32.32" xlink:href="#linear-gradient"/>
    <linearGradient id="linear-gradient-11" x1="31.52" y1="42.31" x2="40.3" y2="33.53" xlink:href="#linear-gradient"/>
    <linearGradient id="linear-gradient-12" x1="34.88" y1="40.64" x2="40.31" y2="35.2" xlink:href="#linear-gradient"/>
    <linearGradient id="linear-gradient-13" x1="45.06" y1="37.77" x2="51.86" y2="30.97" gradientUnits="userSpaceOnUse">
      <stop offset="0" stop-color="#737373"/>
      <stop offset=".01" stop-color="#7b7b7b"/>
      <stop offset=".05" stop-color="#8e8e8e"/>
      <stop offset=".08" stop-color="#9a9a9a"/>
      <stop offset=".12" stop-color="#9e9e9e"/>
      <stop offset=".14" stop-color="#a6a6a6"/>
      <stop offset=".21" stop-color="#c6c6c6"/>
      <stop offset=".28" stop-color="#dfdfdf"/>
      <stop offset=".36" stop-color="#f0f0f0"/>
      <stop offset=".44" stop-color="#fbfbfb"/>
      <stop offset=".53" stop-color="#fff"/>
      <stop offset=".61" stop-color="#fafafa"/>
      <stop offset=".69" stop-color="#ececec"/>
      <stop offset=".78" stop-color="#d4d4d4"/>
      <stop offset=".87" stop-color="#b8b8b8"/>
      <stop offset="1" stop-color="#7a7a7a"/>
    </linearGradient>
    <linearGradient id="linear-gradient-14" x1="58.84" y1="37.77" x2="65.64" y2="30.97" xlink:href="#linear-gradient-13"/>
    <linearGradient id="linear-gradient-15" x1="68.05" y1="37.27" x2="75.54" y2="29.78" xlink:href="#linear-gradient-13"/>
    <linearGradient id="linear-gradient-16" x1="80.24" y1="38.42" x2="85.75" y2="32.91" xlink:href="#linear-gradient-13"/>
  </defs>
  <rect x="-.5" width="98" height="80"/>
  <g>
    <g>
      <g>
        <path class="cls-13" d="m22.75,37.81c-.5-.65-1.2-1.08-2.09-1.29.69-.32,1.21-.75,1.56-1.28.35-.54.53-1.14.53-1.79,0-.69-.18-1.34-.55-1.96-.37-.61-.9-1.1-1.6-1.46-.7-.36-1.46-.53-2.29-.53-1.2,0-2.21.34-3.01,1.03-.81.69-.97.98-1.35,2.1l1.67,1.14c.14-.91.45-1.6.93-2.05.48-.46,1.09-.68,1.81-.68s1.33.22,1.79.67c.46.45.69,1.02.69,1.7,0,.86-.32,1.5-.95,1.92-.64.41-1.35.62-2.14.62-.08,0-.18,0-.3-.02l-.21,1.64c.52-.14.96-.21,1.32-.21.86,0,1.58.28,2.13.83.56.56.84,1.26.84,2.12s-.3,1.65-.91,2.26c-.6.61-1.34.91-2.22.91-.74,0-1.37-.23-1.88-.7-.52-.47-.88-1.23-1.09-2.28l-2.05.05c.12,1.26.81,2.49,1.69,3.28.88.79,1.99,1.19,3.32,1.19,1.48,0,2.7-.46,3.67-1.38.97-.92,1.45-2.05,1.45-3.37,0-.98-.25-1.8-.75-2.45Z"/>
        <path class="cls-1" d="m22.7,44.32c-.29.28-.6.52-.94.73v9.12c0,.42.02.83.07,1.24.07.65.21,1.14.4,1.63.29.74.71,1.44,1.21,2.06l.57.71s.03-.9.03-1.13v-16.32c-.29.72-.74,1.38-1.35,1.96Zm7.75-7.3c-.99-1-2.19-1.5-3.6-1.5-.38,0-.75.04-1.11.12-.92.21-1.72.79-2.23,1.58.45.59.74,1.29.87,2.08.13-.24.29-.46.5-.66.55-.55,1.21-.82,1.98-.82s1.43.27,1.98.82c.55.55.82,1.21.82,1.98s-.27,1.43-.82,1.98c-.55.55-1.2.82-1.98.82-.6,0-1.13-.16-1.6-.5v2.53c.51.17,1.04.26,1.6.26,1.4,0,2.6-.5,3.6-1.49.99-.99,1.49-2.19,1.49-3.6s-.5-2.6-1.49-3.6Z"/>
        <path class="cls-12" d="m31.93,29.47v2.48h-8.47c-.11-.33-.26-.65-.45-.96-.36-.61-.86-1.12-1.47-1.52h10.39Z"/>
        <circle class="cls-14" cx="22.5" cy="23.29" r="1.1"/>
        <path class="cls-9" d="m25.4,25.24h0c-.65.88-1.7,1.45-2.89,1.45s-2.19-.55-2.84-1.4h-.02c-.64.16-.78.2-1.39.45,1.1,1.42,2.32,2.78,4.25,2.78s3.15-1.39,4.25-2.86c-.62-.24-.7-.29-1.35-.43Z"/>
      </g>
      <path class="cls-4" d="m19.2,23.29c0-.32.05-.62.13-.92-2.77.59-5.28,1.9-7.31,3.73v3.18c.29-.36.61-.71.94-1.04.55-.55,1.13-1.04,1.75-1.48.17-.12.35-.24.53-.36.29-.19.59-.36.89-.53,1.05-.57,2.17-1,3.34-1.28-.17-.4-.27-.84-.27-1.3Zm1.39,30v-2.02c-2.48-.57-5.79-1.82-7.63-3.67-.33-.33-.65-.68-.94-1.04v3.18c2.09,1.88,5.7,3.21,8.57,3.77,0-.08,0-.15,0-.23Zm17.95-15.65v.59c0-.1,0-.21,0-.31,0-.09,0-.19,0-.28Zm-6.21,9.97c-1.72,1.72-4.77,3.07-7.05,3.68v2.26c2.66-.61,6.03-2.04,7.99-3.8v-3.17c-.29.36-.6.7-.93,1.03Zm-6.7-25.3c.1.31.15.64.15.98,0,.44-.09.86-.24,1.24,1.17.25,2.29.65,3.35,1.2.4.2.78.43,1.16.67.81.52,1.58,1.14,2.28,1.84.33.33.64.67.93,1.03v-3.17c-2.11-1.9-4.73-3.24-7.63-3.79Z"/>
      <path class="cls-10" d="m6.75,37.92c0-1.98.36-3.87,1.02-5.62v11.24c-.66-1.75-1.02-3.64-1.02-5.62Z"/>
      <path class="cls-15" d="m9.39,29.15v17.54c-.35-.53-.67-1.08-.95-1.64v-14.25c.28-.57.6-1.12.95-1.64Z"/>
      <path class="cls-11" d="m11.37,26.72v22.39c-.47-.47-.91-.98-1.32-1.51v-19.38c.41-.53.85-1.03,1.32-1.51Z"/>
      <path class="cls-7" d="m34.13,26.92c.4.41.77.85,1.12,1.3v19.4c-.41.53-.85,1.03-1.32,1.5v-22.41c.07.07.13.13.2.2Z"/>
      <path class="cls-6" d="m35.91,29.14c.38.57.72,1.17,1.03,1.79v13.98c-.3.62-.65,1.22-1.03,1.79v-17.55Z"/>
      <path class="cls-16" d="m38.55,37.64v.59c-.03,1.8-.37,3.52-.95,5.13v-10.88c.59,1.61.92,3.35.95,5.16Z"/>
    </g>
    <g>
      <g>
        <path class="cls-17" d="m46.05,30.21c.74-.43,1.54-.65,2.41-.65s1.67.22,2.41.65c.74.43,1.32,1.01,1.75,1.75.43.74.65,1.54.65,2.41s-.22,1.67-.65,2.41c-.43.74-1.02,1.32-1.75,1.75-.74.43-1.54.65-2.41.65s-1.67-.22-2.41-.65c-.74-.43-1.32-1.02-1.75-1.75-.43-.74-.65-1.54-.65-2.41s.22-1.67.65-2.41c.43-.74,1.01-1.32,1.75-1.75Zm1.09,7.3c.42.18.86.27,1.32.27s.9-.09,1.32-.27c.42-.18.78-.42,1.09-.73s.55-.67.73-1.09c.18-.42.27-.86.27-1.32,0-.62-.15-1.19-.46-1.71-.3-.52-.72-.93-1.24-1.24-.52-.3-1.09-.46-1.71-.46-.46,0-.9.09-1.32.27-.42.18-.78.42-1.09.73-.3.3-.55.67-.73,1.09-.18.42-.27.86-.27,1.32s.09.9.27,1.32.42.78.73,1.09.67.55,1.09.73Z"/>
        <path class="cls-3" d="m62.24,30.97c-.46,0-.9.09-1.32.27-.42.18-.78.42-1.09.73-.3.3-.55.67-.73,1.09-.18.42-.27.86-.27,1.32s.09.9.27,1.32.42.78.73,1.09.67.55,1.09.73c.42.18.86.27,1.32.27s.93-.1,1.37-.29c.44-.2.82-.47,1.15-.83l1.04.94c-.46.5-.99.89-1.62,1.17s-1.27.41-1.94.41c-.87,0-1.67-.22-2.41-.65-.74-.43-1.32-1.02-1.75-1.75-.43-.74-.65-1.54-.65-2.41s.22-1.67.65-2.41c.43-.74,1.01-1.32,1.75-1.75.74-.43,1.54-.65,2.41-.65.67,0,1.32.14,1.94.41s1.16.66,1.62,1.17l-1.04.94c-.32-.35-.7-.63-1.14-.82-.44-.19-.9-.29-1.38-.29Z"/>
        <path class="cls-2" d="m74.04,29.56c.86,0,1.59.3,2.2.91s.91,1.34.91,2.2-.3,1.59-.91,2.2c-.61.61-1.34.91-2.2.91h-2.68v3.39h-1.4v-9.62h4.08Zm0,4.82c.47,0,.88-.17,1.21-.5.33-.33.5-.74.5-1.21s-.17-.88-.5-1.21c-.33-.33-.74-.5-1.21-.5h-2.68v3.42h2.68Z"/>
        <path class="cls-8" d="m82.4,29.56v8.22h5.2v1.4h-6.6v-9.62h1.4Z"/>
      </g>
      <g>
        <path class="cls-5" d="m44.06,42.93c.14-.12.33-.18.56-.18s.42.06.56.18c.14.12.21.29.21.5s-.07.38-.21.5c-.14.12-.33.18-.55.18s-.42-.06-.56-.18c-.14-.12-.21-.29-.21-.5s.07-.38.21-.5Zm.18.84c.08.06.2.1.37.1s.29-.04.37-.11.12-.18.12-.33c0-.16-.04-.27-.12-.34s-.2-.1-.37-.1-.29.03-.37.1-.12.18-.12.34.04.28.12.34Z"/>
        <path class="cls-5" d="m46.44,42.76l.32.82.09.26.09-.26.31-.82h.46v1.33h-.26v-1.08s0,0,0,0l-.43,1.08h-.34l-.43-1.08h0v.29s0,.79,0,.79h-.26v-1.33h.46Z"/>
        <path class="cls-5" d="m48.39,44.09v-1.33h.27v.57h.18l.47-.57h.32l-.57.69.61.65h-.34l-.49-.53h-.18v.53h-.27Z"/>
        <path class="cls-5" d="m50.63,42.76h.37l.55,1.33h-.28l-.13-.3h-.67l-.13.3h-.28l.56-1.33Zm-.06.79h.49l-.15-.36-.08-.22h0l-.08.22-.16.36Z"/>
        <path class="cls-5" d="m52.83,42.76c.15,0,.26.03.34.1s.12.17.12.3c0,.11-.03.19-.08.26-.06.07-.13.1-.24.1h0s.37.57.37.57h-.27l-.34-.53h-.34v.53h-.27v-1.33h.71Zm-.03.58c.08,0,.13-.01.17-.04.03-.03.05-.07.05-.14s-.02-.11-.05-.13-.09-.04-.17-.04h-.41v.34h.41Z"/>
        <path class="cls-5" d="m54.34,42.76h.37l.55,1.33h-.28l-.13-.3h-.67l-.13.3h-.28l.56-1.33Zm-.06.79h.49l-.15-.36-.08-.22h0l-.08.22-.16.36Z"/>
        <path class="cls-5" d="m56.88,42.93c.14-.12.32-.18.57-.18.41,0,.64.19.7.56l-.27.05h0c-.02-.1-.04-.17-.06-.22-.03-.05-.07-.09-.12-.11-.06-.02-.13-.04-.24-.04-.18,0-.31.03-.38.1-.07.07-.11.18-.11.34s.04.28.11.34c.07.06.2.1.38.1.15,0,.25-.03.31-.08.06-.05.1-.15.12-.29h0s.27.05.27.05c-.03.19-.1.32-.22.42s-.28.14-.48.14c-.23,0-.42-.06-.56-.18-.14-.12-.21-.29-.21-.5s.07-.38.2-.5Z"/>
        <path class="cls-5" d="m58.9,42.93c.14-.12.33-.18.56-.18s.42.06.56.18c.14.12.21.29.21.5s-.07.38-.21.5c-.14.12-.33.18-.55.18s-.42-.06-.56-.18c-.14-.12-.21-.29-.21-.5s.07-.38.21-.5Zm.18.84c.08.06.2.1.37.1s.29-.04.37-.11.12-.18.12-.33c0-.16-.04-.27-.12-.34s-.2-.1-.37-.1-.29.03-.37.1-.12.18-.12.34.04.28.12.34Z"/>
        <path class="cls-5" d="m61.28,42.76l.32.82.09.26.09-.26.31-.82h.46v1.33h-.26v-1.08s0,0,0,0l-.43,1.08h-.34l-.43-1.08h0v.29s0,.79,0,.79h-.26v-1.33h.46Z"/>
        <path class="cls-5" d="m63.68,42.76l.32.82.09.26.09-.26.31-.82h.46v1.33h-.26v-1.08s0,0,0,0l-.43,1.08h-.34l-.43-1.08h0v.29s0,.79,0,.79h-.26v-1.33h.46Z"/>
        <path class="cls-5" d="m65.63,42.76h1v.25h-.73v.27h.67v.24h-.67v.33h.73v.25h-1v-1.33Z"/>
        <path class="cls-5" d="m67.99,42.76c.15,0,.26.03.34.1s.12.17.12.3c0,.11-.03.19-.08.26-.06.07-.13.1-.24.1h0s.37.57.37.57h-.27l-.34-.53h-.34v.53h-.27v-1.33h.71Zm-.03.58c.08,0,.13-.01.17-.04.03-.03.05-.07.05-.14s-.02-.11-.05-.13-.09-.04-.17-.04h-.41v.34h.41Z"/>
        <path class="cls-5" d="m69.19,42.93c.14-.12.32-.18.57-.18.41,0,.64.19.7.56l-.27.05h0c-.02-.1-.04-.17-.06-.22-.03-.05-.07-.09-.12-.11-.06-.02-.13-.04-.24-.04-.18,0-.31.03-.38.1-.07.07-.11.18-.11.34s.04.28.11.34c.07.06.2.1.38.1.15,0,.25-.03.31-.08.06-.05.1-.15.12-.29h0s.27.05.27.05c-.03.19-.1.32-.22.42s-.28.14-.48.14c-.23,0-.42-.06-.56-.18-.14-.12-.21-.29-.21-.5s.07-.38.2-.5Z"/>
        <path class="cls-5" d="m71.08,44.09v-1.33h.28v1.33h-.28Z"/>
        <path class="cls-5" d="m72.47,42.76h.37l.55,1.33h-.28l-.13-.3h-.67l-.13.3h-.28l.56-1.33Zm-.06.79h.49l-.15-.36-.08-.22h0l-.08.22-.16.36Z"/>
        <path class="cls-5" d="m74.23,43.85h.71v.25h-.98v-1.33h.27v1.08Z"/>
        <path class="cls-5" d="m77.09,42.76c.16,0,.28.04.36.11.08.07.12.18.12.31s-.04.24-.12.32-.2.12-.37.12h-.38v.48h-.27v-1.33h.65Zm-.38.23v.38h.38c.07,0,.12-.02.16-.05.03-.03.05-.08.05-.15s-.02-.11-.05-.14c-.03-.03-.09-.04-.16-.04h-.38Z"/>
        <path class="cls-5" d="m78.31,42.76l.3.73.12.3h0l.41-1.03h.31l-.56,1.33h-.34l-.56-1.33h.31Z"/>
        <path class="cls-5" d="m81.12,42.76v.24h-.47s0,1.09,0,1.09h-.27v-1.09h-.47s0-.24,0-.24h1.21Z"/>
        <path class="cls-5" d="m82.93,43.85h.71v.25h-.98v-1.33h.27v1.08Z"/>
        <path class="cls-5" d="m85.13,42.76v.24h-.47s0,1.09,0,1.09h-.27v-1.09h-.47s0-.24,0-.24h1.21Z"/>
        <path class="cls-5" d="m86.42,42.76c.22,0,.39.06.51.18.12.12.18.28.18.49s-.06.37-.18.49c-.12.12-.29.18-.51.18h-.68v-1.33h.68Zm-.41.25v.83h.41c.15,0,.26-.03.32-.1.06-.06.09-.17.09-.32s-.03-.26-.09-.32-.17-.09-.32-.09h-.41Z"/>
      </g>
    </g>
  </g>
</svg>