<?xml version="1.0" encoding="UTF-8"?>
<svg id="Layer_2" data-name="Layer 2" xmlns="http://www.w3.org/2000/svg" viewBox="0 0 1080 1080">
  <defs>
    <style>
      .cls-1 {
        fill: #fff;
      }
    </style>
  </defs>
  <g>
    <g>
      <path class="cls-1" d="m282.98,528.11c-4.97-6.52-11.93-10.81-20.89-12.88,6.9-3.17,12.1-7.44,15.61-12.82,3.52-5.37,5.28-11.34,5.28-17.89,0-6.9-1.84-13.41-5.53-19.55-3.7-6.13-9.02-10.98-15.99-14.53-6.97-3.55-14.58-5.32-22.85-5.32-12,0-22.03,3.43-30.09,10.29-8.07,6.86-9.71,9.83-13.52,20.93l16.62,11.39c1.37-9.1,4.48-15.93,9.3-20.48,4.83-4.55,10.86-6.82,18.11-6.82s13.27,2.24,17.89,6.72c4.62,4.48,6.93,10.14,6.93,16.96,0,8.62-3.17,15-9.52,19.14-6.34,4.13-13.48,6.2-21.4,6.2-.76,0-1.76-.06-3.01-.2l-2.06,16.34c5.24-1.37,9.62-2.07,13.13-2.07,8.62,0,15.72,2.78,21.3,8.32,5.59,5.55,8.38,12.61,8.38,21.16s-3.01,16.48-9.05,22.54c-6.03,6.06-13.42,9.1-22.18,9.1-7.38,0-13.64-2.33-18.76-6.98-5.15-4.65-8.78-12.26-10.92-22.8l-20.47.51c1.24,12.62,8.11,24.86,16.9,32.78,8.79,7.93,19.84,11.9,33.14,11.9,14.76,0,26.96-4.61,36.61-13.81,9.65-9.2,14.47-20.42,14.47-33.65,0-9.79-2.48-17.94-7.44-24.46Z"/>
      <path class="cls-1" d="m282.52,593.12c-2.91,2.78-6.03,5.21-9.34,7.28v91.05c0,4.15.24,8.29.72,12.39.75,6.51,2.08,11.39,4,16.26,2.92,7.43,7.04,14.33,12.05,20.55l5.73,7.12c.08,0,.29-8.94.34-11.31v-162.92c-2.9,7.22-7.41,13.76-13.51,19.58Zm77.32-72.86c-9.93-9.96-21.89-14.94-35.88-14.94-3.8,0-7.51.4-11.12,1.22-9.21,2.1-17.18,7.85-22.29,15.8,4.49,5.91,7.39,12.86,8.67,20.73,1.27-2.38,2.93-4.58,4.98-6.63,5.45-5.45,12.04-8.18,19.76-8.18s14.3,2.73,19.74,8.18c5.45,5.45,8.18,12.03,8.18,19.75s-2.73,14.31-8.18,19.74c-5.45,5.45-12.02,8.18-19.74,8.18-6,0-11.32-1.65-15.95-4.94v25.25c5.08,1.7,10.4,2.55,15.95,2.55,14,0,25.95-4.97,35.88-14.9,9.92-9.92,14.9-21.89,14.9-35.88s-4.97-25.98-14.9-35.94Z"/>
      <path class="cls-1" d="m374.63,444.92v24.75h-84.56c-1.11-3.3-2.6-6.5-4.47-9.61-3.64-6.06-8.58-11.13-14.71-15.14h103.74Z"/>
      <circle class="cls-1" cx="280.48" cy="383.2" r="10.96"/>
      <path class="cls-1" d="m309.42,402.73h-.08c-6.54,8.79-17.01,14.5-28.81,14.5s-21.82-5.46-28.38-13.95l-.2.04c-6.42,1.52-7.75,1.92-13.84,4.4,10.98,14.14,23.17,27.79,42.41,27.79s31.47-13.86,42.41-28.52c-6.22-2.4-6.98-2.86-13.52-4.26Z"/>
    </g>
    <path class="cls-1" d="m247.58,383.2c0-3.17.45-6.24,1.29-9.14-27.66,5.87-52.65,18.95-72.91,37.18v31.69c2.93-3.58,6.05-7.04,9.37-10.35,5.46-5.46,11.29-10.39,17.45-14.79,1.73-1.24,3.49-2.44,5.27-3.58,2.89-1.86,5.84-3.62,8.86-5.25,10.5-5.71,21.7-9.99,33.36-12.75-1.73-3.99-2.68-8.39-2.68-13.01Zm13.91,299.48v-20.12c-24.78-5.67-57.75-18.18-76.16-36.59-3.31-3.31-6.44-6.77-9.37-10.35v31.69c20.86,18.76,56.94,32.06,85.55,37.67-.01-.77-.02-1.53-.02-2.3Zm179.19-156.21v5.87c.02-1.02.03-2.05.03-3.08,0-.94,0-1.86-.03-2.79Zm-61.96,99.49c-17.12,17.12-47.64,30.6-70.4,36.76v22.6c26.51-6.14,60.14-20.38,79.71-37.96v-31.69c-2.9,3.56-6.01,6.99-9.31,10.29Zm-66.83-252.57c.97,3.1,1.49,6.39,1.49,9.81,0,4.38-.86,8.56-2.42,12.38,11.67,2.5,22.9,6.52,33.47,11.95,3.96,2.03,7.82,4.26,11.57,6.68,8.12,5.24,15.73,11.38,22.72,18.37,3.3,3.3,6.4,6.73,9.31,10.29v-31.68c-21.06-18.93-47.21-32.29-76.14-37.8Z"/>
    <path class="cls-1" d="m123.33,529.27c0-19.75,3.61-38.66,10.21-56.1v112.21c-6.6-17.44-10.21-36.36-10.21-56.11Z"/>
    <path class="cls-1" d="m149.63,441.76v175.03c-3.48-5.26-6.66-10.74-9.51-16.41v-142.21c2.84-5.67,6.03-11.15,9.51-16.41Z"/>
    <path class="cls-1" d="m169.38,417.51v223.53c-4.69-4.73-9.1-9.75-13.16-15.04v-193.44c4.07-5.29,8.47-10.31,13.16-15.04Z"/>
    <path class="cls-1" d="m396.57,419.46c3.96,4.13,7.7,8.48,11.2,13.02v193.59c-4.07,5.28-8.47,10.3-13.16,15.02v-223.65c.67.67,1.32,1.34,1.97,2.02Z"/>
    <path class="cls-1" d="m414.35,441.67c3.78,5.7,7.21,11.66,10.24,17.85v139.49c-3.03,6.19-6.46,12.16-10.24,17.86v-175.2Z"/>
    <path class="cls-1" d="m440.67,526.48v5.87c-.34,17.95-3.66,35.18-9.51,51.2v-108.56c5.87,16.1,9.2,33.43,9.51,51.49Z"/>
  </g>
  <g>
    <g>
      <path class="cls-1" d="m515.57,452.29c7.36-4.3,15.38-6.46,24.07-6.46s16.7,2.15,24.06,6.46c7.35,4.29,13.18,10.12,17.49,17.49,4.29,7.35,6.45,15.37,6.45,24.06s-2.15,16.71-6.45,24.06c-4.3,7.35-10.13,13.18-17.49,17.49-7.36,4.29-15.38,6.45-24.06,6.45s-16.71-2.15-24.07-6.45c-7.35-4.3-13.18-10.13-17.48-17.49-4.3-7.35-6.46-15.37-6.46-24.06s2.15-16.71,6.46-24.06c4.29-7.36,10.12-13.19,17.48-17.49Zm10.88,72.84c4.2,1.81,8.59,2.72,13.19,2.72s8.98-.91,13.18-2.72c4.19-1.81,7.81-4.24,10.84-7.27,3.04-3.04,5.45-6.65,7.25-10.85,1.79-4.2,2.68-8.59,2.68-13.18,0-6.16-1.52-11.84-4.56-17.04-3.03-5.21-7.15-9.33-12.36-12.36-5.2-3.04-10.89-4.56-17.03-4.56-4.6,0-8.99.9-13.19,2.69-4.19,1.79-7.81,4.2-10.84,7.24-3.04,3.03-5.46,6.65-7.28,10.85-1.81,4.19-2.72,8.59-2.72,13.18s.91,8.98,2.72,13.18c1.81,4.2,4.24,7.81,7.28,10.85,3.03,3.03,6.65,5.45,10.84,7.27Z"/>
      <path class="cls-1" d="m677.14,459.87c-4.6,0-8.99.9-13.19,2.69-4.19,1.79-7.81,4.2-10.84,7.24-3.04,3.03-5.46,6.65-7.28,10.85-1.81,4.19-2.72,8.59-2.72,13.18s.91,8.98,2.72,13.18c1.81,4.2,4.24,7.81,7.28,10.85,3.03,3.03,6.65,5.45,10.84,7.27,4.2,1.81,8.59,2.72,13.19,2.72s9.33-.98,13.71-2.94c4.39-1.96,8.2-4.71,11.45-8.25l10.37,9.42c-4.56,5.02-9.93,8.9-16.13,11.64-6.2,2.74-12.67,4.11-19.41,4.11-8.69,0-16.71-2.15-24.07-6.45-7.35-4.3-13.18-10.13-17.48-17.49-4.3-7.35-6.46-15.37-6.46-24.06s2.15-16.71,6.46-24.06c4.29-7.36,10.12-13.19,17.48-17.49,7.36-4.3,15.38-6.46,24.07-6.46,6.74,0,13.21,1.37,19.41,4.11,6.2,2.74,11.57,6.62,16.13,11.64l-10.37,9.42c-3.2-3.54-7.01-6.28-11.41-8.22-4.41-1.93-8.99-2.9-13.75-2.9Z"/>
      <path class="cls-1" d="m794.92,445.83c8.56,0,15.88,3.04,21.95,9.11,6.07,6.07,9.1,13.39,9.1,21.95s-3.03,15.88-9.1,21.97c-6.07,6.09-13.39,9.13-21.95,9.13h-26.75v33.84h-13.97v-96h40.73Zm0,48.13c4.72,0,8.74-1.67,12.08-5,3.33-3.33,4.99-7.35,4.99-12.07s-1.66-8.75-4.99-12.08c-3.34-3.33-7.36-4.99-12.08-4.99h-26.75v34.14h26.75Z"/>
      <path class="cls-1" d="m878.36,445.83v82.02h51.85v13.97h-65.83v-96h13.97Z"/>
    </g>
    <g>
      <path class="cls-1" d="m495.71,579.22c1.41-1.22,3.25-1.82,5.55-1.82s4.15.61,5.55,1.84c1.39,1.23,2.09,2.9,2.09,5.02s-.7,3.78-2.1,5c-1.4,1.22-3.25,1.82-5.54,1.82s-4.16-.61-5.56-1.83c-1.4-1.22-2.1-2.88-2.1-4.99s.7-3.81,2.11-5.03Zm1.84,8.42c.76.65,2,.97,3.71.97s2.86-.35,3.65-1.05,1.18-1.81,1.18-3.32c0-1.6-.39-2.73-1.16-3.39s-1.99-1-3.67-1-2.93.33-3.71,1-1.16,1.8-1.16,3.39.39,2.77,1.16,3.4Z"/>
      <path class="cls-1" d="m519.45,577.59l3.15,8.21.87,2.64.87-2.64,3.13-8.21h4.56v13.3h-2.6v-7.88l.02-2.87h-.06l-4.26,10.75h-3.36l-4.26-10.75h-.06l.02,2.89v7.87h-2.6v-13.3h4.56Z"/>
      <path class="cls-1" d="m538.91,590.89v-13.3h2.66v5.66h1.77l4.71-5.66h3.21l-5.74,6.84,6.06,6.46h-3.38l-4.86-5.28h-1.77v5.28h-2.66Z"/>
      <path class="cls-1" d="m561.25,577.59h3.74l5.53,13.3h-2.81l-1.25-3.04h-6.69l-1.27,3.04h-2.81l5.57-13.3Zm-.57,7.88h4.86l-1.54-3.61-.84-2.2h-.1l-.84,2.2-1.56,3.61Z"/>
      <path class="cls-1" d="m583.19,577.59c1.47,0,2.61.35,3.42,1.04s1.22,1.68,1.22,2.96c0,1.06-.28,1.93-.84,2.6-.56.67-1.35,1.01-2.35,1.01v.06l3.69,5.62h-2.72l-3.38-5.26h-3.42v5.26h-2.7v-13.3h7.09Zm-.32,5.78c.79,0,1.35-.13,1.68-.39.34-.26.5-.71.5-1.36s-.17-1.07-.51-1.32-.9-.37-1.67-.37h-4.07v3.44h4.07Z"/>
      <path class="cls-1" d="m598.34,577.59h3.74l5.53,13.3h-2.81l-1.25-3.04h-6.69l-1.27,3.04h-2.81l5.57-13.3Zm-.57,7.88h4.86l-1.54-3.61-.84-2.2h-.1l-.84,2.2-1.56,3.61Z"/>
      <path class="cls-1" d="m623.64,579.22c1.36-1.22,3.24-1.82,5.64-1.82,4.08,0,6.4,1.85,6.95,5.55l-2.7.53-.02-.02c-.17-.95-.38-1.67-.65-2.16-.27-.49-.68-.85-1.24-1.09-.56-.24-1.34-.36-2.36-.36-1.79,0-3.05.33-3.78.99-.74.66-1.1,1.79-1.1,3.4s.37,2.75,1.11,3.4c.74.65,2,.97,3.77.97,1.48,0,2.5-.26,3.06-.77.56-.51.95-1.47,1.18-2.86l.02-.02,2.7.53c-.28,1.85-1.01,3.24-2.19,4.18s-2.77,1.41-4.77,1.41c-2.32,0-4.18-.61-5.58-1.83-1.4-1.22-2.1-2.88-2.1-4.99s.68-3.82,2.03-5.03Z"/>
      <path class="cls-1" d="m643.8,579.22c1.41-1.22,3.25-1.82,5.55-1.82s4.15.61,5.55,1.84c1.39,1.23,2.09,2.9,2.09,5.02s-.7,3.78-2.1,5c-1.4,1.22-3.25,1.82-5.54,1.82s-4.16-.61-5.56-1.83c-1.4-1.22-2.1-2.88-2.1-4.99s.7-3.81,2.11-5.03Zm1.84,8.42c.76.65,2,.97,3.71.97s2.86-.35,3.65-1.05,1.18-1.81,1.18-3.32c0-1.6-.39-2.73-1.16-3.39s-1.99-1-3.67-1-2.93.33-3.71,1-1.16,1.8-1.16,3.39.39,2.77,1.16,3.4Z"/>
      <path class="cls-1" d="m667.55,577.59l3.15,8.21.87,2.64.87-2.64,3.13-8.21h4.56v13.3h-2.6v-7.88l.02-2.87h-.06l-4.26,10.75h-3.36l-4.26-10.75h-.06l.02,2.89v7.87h-2.6v-13.3h4.56Z"/>
      <path class="cls-1" d="m691.56,577.59l3.15,8.21.87,2.64.87-2.64,3.13-8.21h4.56v13.3h-2.6v-7.88l.02-2.87h-.06l-4.26,10.75h-3.36l-4.26-10.75h-.06l.02,2.89v7.87h-2.6v-13.3h4.56Z"/>
      <path class="cls-1" d="m711.02,577.59h9.97v2.47h-7.31v2.72h6.71v2.39h-6.71v3.25h7.31v2.47h-9.97v-13.3Z"/>
      <path class="cls-1" d="m734.58,577.59c1.47,0,2.61.35,3.42,1.04s1.22,1.68,1.22,2.96c0,1.06-.28,1.93-.84,2.6-.56.67-1.35,1.01-2.35,1.01v.06l3.69,5.62h-2.72l-3.38-5.26h-3.42v5.26h-2.7v-13.3h7.09Zm-.32,5.78c.79,0,1.35-.13,1.68-.39.34-.26.5-.71.5-1.36s-.17-1.07-.51-1.32-.9-.37-1.67-.37h-4.07v3.44h4.07Z"/>
      <path class="cls-1" d="m746.49,579.22c1.36-1.22,3.24-1.82,5.64-1.82,4.08,0,6.4,1.85,6.95,5.55l-2.7.53-.02-.02c-.17-.95-.38-1.67-.65-2.16-.27-.49-.68-.85-1.24-1.09-.56-.24-1.34-.36-2.36-.36-1.79,0-3.05.33-3.78.99-.74.66-1.1,1.79-1.1,3.4s.37,2.75,1.11,3.4c.74.65,2,.97,3.77.97,1.48,0,2.5-.26,3.06-.77.56-.51.95-1.47,1.18-2.86l.02-.02,2.7.53c-.28,1.85-1.01,3.24-2.19,4.18s-2.77,1.41-4.77,1.41c-2.32,0-4.18-.61-5.58-1.83-1.4-1.22-2.1-2.88-2.1-4.99s.68-3.82,2.03-5.03Z"/>
      <path class="cls-1" d="m765.39,590.89v-13.3h2.77v13.3h-2.77Z"/>
      <path class="cls-1" d="m779.3,577.59h3.74l5.53,13.3h-2.81l-1.25-3.04h-6.69l-1.27,3.04h-2.81l5.57-13.3Zm-.57,7.88h4.86l-1.54-3.61-.84-2.2h-.1l-.84,2.2-1.56,3.61Z"/>
      <path class="cls-1" d="m796.87,588.4h7.09v2.49h-9.8v-13.3h2.72v10.81Z"/>
      <path class="cls-1" d="m825.37,577.59c1.61,0,2.82.36,3.64,1.07.82.72,1.23,1.76,1.23,3.12s-.41,2.38-1.22,3.15-2.03,1.16-3.65,1.16h-3.82v4.79h-2.7v-13.3h6.52Zm-3.82,2.34v3.84h3.82c.72,0,1.25-.16,1.58-.47.33-.32.49-.82.49-1.5s-.17-1.13-.5-1.42c-.34-.29-.86-.44-1.57-.44h-3.82Z"/>
      <path class="cls-1" d="m837.55,577.59l2.96,7.33,1.18,2.98h.09l4.14-10.32h3.1l-5.57,13.3h-3.4l-5.61-13.3h3.1Z"/>
      <path class="cls-1" d="m865.63,577.59v2.39l-4.67-.02v10.92h-2.7v-10.92l-4.67.02v-2.39h12.04Z"/>
      <path class="cls-1" d="m883.66,588.4h7.09v2.49h-9.8v-13.3h2.72v10.81Z"/>
      <path class="cls-1" d="m905.58,577.59v2.39l-4.67-.02v10.92h-2.7v-10.92l-4.67.02v-2.39h12.04Z"/>
      <path class="cls-1" d="m918.45,577.59c2.18,0,3.87.59,5.08,1.79,1.21,1.19,1.81,2.81,1.81,4.86s-.61,3.67-1.82,4.86c-1.22,1.19-2.91,1.79-5.07,1.79h-6.82v-13.3h6.82Zm-4.12,2.49v8.32h4.07c1.52,0,2.59-.32,3.22-.95.63-.63.94-1.7.94-3.21s-.31-2.59-.94-3.22-1.7-.94-3.22-.94h-4.07Z"/>
    </g>
  </g>
</svg>